<svg xmlns="http://www.w3.org/2000/svg" xmlns:xlink="http://www.w3.org/1999/xlink" width="500" zoomAndPan="magnify" viewBox="0 0 375 374.999991" height="500" preserveAspectRatio="xMidYMid meet" version="1.2"><defs><clipPath id="0493126cad"><path d="M 46.042969 20 L 328.792969 20 L 328.792969 355 L 46.042969 355 Z M 46.042969 20 "/></clipPath></defs><g id="90c06c423e"><g clip-rule="nonzero" clip-path="url(#0493126cad)"><path style=" stroke:none;fill-rule:nonzero;fill:#a274ff;fill-opacity:1;" d="M 324.359375 21.167969 L 209.542969 136.058594 C 208.566406 137.035156 208.566406 138.613281 209.542969 139.585938 L 230.707031 160.75 C 231.679688 161.726562 233.261719 161.726562 234.234375 160.75 L 289.441406 105.472656 C 291.011719 103.898438 293.699219 105.011719 293.699219 107.234375 L 293.699219 267.59375 C 293.699219 269.816406 291.011719 270.925781 289.445312 269.359375 L 50.480469 30.394531 C 48.910156 28.824219 46.222656 29.933594 46.222656 32.160156 L 46.222656 74.480469 C 46.222656 75.140625 46.488281 75.777344 46.953125 76.246094 L 324.359375 353.648438 C 325.929688 355.21875 328.617188 354.109375 328.617188 351.886719 L 328.617188 22.933594 C 328.617188 20.710938 325.929688 19.597656 324.359375 21.167969 Z M 50.480469 200.550781 C 48.90625 198.976562 46.222656 200.089844 46.222656 202.3125 L 46.222656 313.265625 C 46.222656 314.644531 47.339844 315.757812 48.714844 315.757812 L 78.644531 315.757812 C 80.019531 315.757812 81.136719 314.644531 81.136719 313.265625 L 81.136719 232.242188 C 81.136719 231.582031 80.875 230.945312 80.40625 230.476562 Z M 245.980469 311.496094 C 247.554688 313.070312 246.441406 315.753906 244.214844 315.753906 L 201.886719 315.753906 C 201.226562 315.753906 200.59375 315.496094 200.125 315.027344 L 46.953125 161.851562 C 46.488281 161.382812 46.222656 160.75 46.222656 160.089844 L 46.222656 117.761719 C 46.222656 115.539062 48.910156 114.429688 50.480469 116 L 245.980469 311.496094 "/></g></g></svg>